# xmcd
#
# Track frame offsets:
#	150
#	11145
#	22425
#	34785
#	43827
#	56537
#	66962
#	79387
#	91460
#	103825
#	117180
#	131397
#
# Disc length: 1906 seconds
#
# Revision: 1
# Processed by: cddbd v1.5.2PL0 Copyright (c) Steve Scherf et al.
# Submitted via: EasyCDDAExtractor 15.3.0.1
#
DISCID=aa07700c
DTITLE=Joe Simon - My Adorable One
DYEAR=1997
DGENRE=Soul
TTITLE0=My Adorable One
TTITLE1=Teenager's Prayer
TTITLE2=My Special Prayer
TTITLE3=Put Your Trust in Me (Depend on Me)
TTITLE4=Nine Pound Steel
TTITLE5=No Sad Songs
TTITLE6=(You Keep Me) Hangin' On
TTITLE7=The Chokin' Kind
TTITLE8=Baby don't be looking in my mind
TTITLE9=It's Hard to Get Along
TTITLE10=Farther on Down the Road
TTITLE11=That's the Way I Want Our Love
EXTD=
EXTT0=
EXTT1=
EXTT2=
EXTT3=
EXTT4=
EXTT5=
EXTT6=
EXTT7=
EXTT8=
EXTT9=
EXTT10=
EXTT11=
PLAYORDER=
